<svg width="391" height="387" viewBox="0 0 391 387" fill="none" xmlns="http://www.w3.org/2000/svg">
<circle cx="40" cy="42" r="100" fill="#C3FBCC" fill-opacity="0.43"/>
<path d="M386 180C386 291.773 299.384 382 193 382C86.6162 382 0 291.773 0 180C0 68.2267 86.6162 -22 193 -22C299.384 -22 386 68.2267 386 180Z" stroke="#946407" stroke-width="10"/>
<ellipse cx="40" cy="275" rx="32" ry="28" fill="#E6FFEA"/>
<ellipse cx="24.5" cy="316" rx="16.5" ry="13" fill="#C3FBCC" fill-opacity="0.43"/>
<ellipse cx="129" cy="150.5" rx="241" ry="225.5" fill="#C3FBCC" fill-opacity="0.43"/>
<path d="M133.938 180.352H148.867V186H126.906V151.875H133.938V180.352ZM179.453 169.711C179.453 173.07 178.859 176.016 177.672 178.547C176.484 181.078 174.781 183.031 172.562 184.406C170.359 185.781 167.828 186.469 164.969 186.469C162.141 186.469 159.617 185.789 157.398 184.43C155.18 183.07 153.461 181.133 152.242 178.617C151.023 176.086 150.406 173.18 150.391 169.898V168.211C150.391 164.852 150.992 161.898 152.195 159.352C153.414 156.789 155.125 154.828 157.328 153.469C159.547 152.094 162.078 151.406 164.922 151.406C167.766 151.406 170.289 152.094 172.492 153.469C174.711 154.828 176.422 156.789 177.625 159.352C178.844 161.898 179.453 164.844 179.453 168.188V169.711ZM172.328 168.164C172.328 164.586 171.688 161.867 170.406 160.008C169.125 158.148 167.297 157.219 164.922 157.219C162.562 157.219 160.742 158.141 159.461 159.984C158.18 161.812 157.531 164.5 157.516 168.047V169.711C157.516 173.195 158.156 175.898 159.438 177.82C160.719 179.742 162.562 180.703 164.969 180.703C167.328 180.703 169.141 179.781 170.406 177.938C171.672 176.078 172.312 173.375 172.328 169.828V168.164ZM211.562 181.688C210.297 183.203 208.508 184.383 206.195 185.227C203.883 186.055 201.32 186.469 198.508 186.469C195.555 186.469 192.961 185.828 190.727 184.547C188.508 183.25 186.789 181.375 185.57 178.922C184.367 176.469 183.75 173.586 183.719 170.273V167.953C183.719 164.547 184.289 161.602 185.43 159.117C186.586 156.617 188.242 154.711 190.398 153.398C192.57 152.07 195.109 151.406 198.016 151.406C202.062 151.406 205.227 152.375 207.508 154.312C209.789 156.234 211.141 159.039 211.562 162.727H204.719C204.406 160.773 203.711 159.344 202.633 158.438C201.57 157.531 200.102 157.078 198.227 157.078C195.836 157.078 194.016 157.977 192.766 159.773C191.516 161.57 190.883 164.242 190.867 167.789V169.969C190.867 173.547 191.547 176.25 192.906 178.078C194.266 179.906 196.258 180.82 198.883 180.82C201.523 180.82 203.406 180.258 204.531 179.133V173.25H198.133V168.07H211.562V181.688ZM224.758 186H217.727V151.875H224.758V186ZM259.047 186H252.016L238.328 163.547V186H231.297V151.875H238.328L252.039 174.375V151.875H259.047V186Z" fill="#E7FADE"/>
<path d="M99.0098 200.678H91.1699V222H85.8965V200.678H78.1621V196.406H99.0098V200.678ZM122.564 209.783C122.564 212.303 122.119 214.512 121.229 216.41C120.338 218.309 119.061 219.773 117.396 220.805C115.744 221.836 113.846 222.352 111.701 222.352C109.58 222.352 107.688 221.842 106.023 220.822C104.359 219.803 103.07 218.35 102.156 216.463C101.242 214.564 100.779 212.385 100.768 209.924V208.658C100.768 206.139 101.219 203.924 102.121 202.014C103.035 200.092 104.318 198.621 105.971 197.602C107.635 196.57 109.533 196.055 111.666 196.055C113.799 196.055 115.691 196.57 117.344 197.602C119.008 198.621 120.291 200.092 121.193 202.014C122.107 203.924 122.564 206.133 122.564 208.641V209.783ZM117.221 208.623C117.221 205.939 116.74 203.9 115.779 202.506C114.818 201.111 113.447 200.414 111.666 200.414C109.896 200.414 108.531 201.105 107.57 202.488C106.609 203.859 106.123 205.875 106.111 208.535V209.783C106.111 212.396 106.592 214.424 107.553 215.865C108.514 217.307 109.896 218.027 111.701 218.027C113.471 218.027 114.83 217.336 115.779 215.953C116.729 214.559 117.209 212.531 117.221 209.871V208.623ZM155.453 213.475C155.254 216.229 154.234 218.396 152.395 219.979C150.566 221.561 148.152 222.352 145.152 222.352C141.871 222.352 139.287 221.25 137.4 219.047C135.525 216.832 134.588 213.797 134.588 209.941V208.377C134.588 205.916 135.021 203.748 135.889 201.873C136.756 199.998 137.992 198.562 139.598 197.566C141.215 196.559 143.09 196.055 145.223 196.055C148.176 196.055 150.555 196.846 152.359 198.428C154.164 200.01 155.207 202.23 155.488 205.09H150.215C150.086 203.438 149.623 202.242 148.826 201.504C148.041 200.754 146.84 200.379 145.223 200.379C143.465 200.379 142.146 201.012 141.268 202.277C140.4 203.531 139.955 205.482 139.932 208.131V210.064C139.932 212.83 140.348 214.852 141.18 216.129C142.023 217.406 143.348 218.045 145.152 218.045C146.781 218.045 147.994 217.676 148.791 216.938C149.6 216.188 150.062 215.033 150.18 213.475H155.453ZM179.939 209.783C179.939 212.303 179.494 214.512 178.604 216.41C177.713 218.309 176.436 219.773 174.771 220.805C173.119 221.836 171.221 222.352 169.076 222.352C166.955 222.352 165.062 221.842 163.398 220.822C161.734 219.803 160.445 218.35 159.531 216.463C158.617 214.564 158.154 212.385 158.143 209.924V208.658C158.143 206.139 158.594 203.924 159.496 202.014C160.41 200.092 161.693 198.621 163.346 197.602C165.01 196.57 166.908 196.055 169.041 196.055C171.174 196.055 173.066 196.57 174.719 197.602C176.383 198.621 177.666 200.092 178.568 202.014C179.482 203.924 179.939 206.133 179.939 208.641V209.783ZM174.596 208.623C174.596 205.939 174.115 203.9 173.154 202.506C172.193 201.111 170.822 200.414 169.041 200.414C167.271 200.414 165.906 201.105 164.945 202.488C163.984 203.859 163.498 205.875 163.486 208.535V209.783C163.486 212.396 163.967 214.424 164.928 215.865C165.889 217.307 167.271 218.027 169.076 218.027C170.846 218.027 172.205 217.336 173.154 215.953C174.104 214.559 174.584 212.531 174.596 209.871V208.623ZM204.584 222H199.311L189.045 205.16V222H183.771V196.406H189.045L199.328 213.281V196.406H204.584V222ZM227.928 200.678H220.088V222H214.814V200.678H207.08V196.406H227.928V200.678ZM236.559 222H231.285V196.406H236.559V222ZM262.275 222H257.002L246.736 205.16V222H241.463V196.406H246.736L257.02 213.281V196.406H262.275V222ZM286.252 196.406V213.264C286.252 216.064 285.373 218.279 283.615 219.908C281.869 221.537 279.479 222.352 276.443 222.352C273.455 222.352 271.082 221.561 269.324 219.979C267.566 218.396 266.67 216.223 266.635 213.457V196.406H271.908V213.299C271.908 214.975 272.307 216.199 273.104 216.973C273.912 217.734 275.025 218.115 276.443 218.115C279.408 218.115 280.914 216.557 280.961 213.439V196.406H286.252ZM305.975 210.908H295.85V217.764H307.732V222H290.576V196.406H307.697V200.678H295.85V206.777H305.975V210.908Z" fill="#8FA584"/>
</svg>
