<svg width="400" height="361" viewBox="0 0 400 361" fill="none" xmlns="http://www.w3.org/2000/svg">
<ellipse cx="47.9091" cy="66.7801" rx="90.9091" ry="82.9876" fill="#C3FBCC" fill-opacity="0.43"/>
<path d="M395 172.5C395 273.524 307.131 356 198 356C88.8685 356 1 273.524 1 172.5C1 71.4759 88.8685 -11 198 -11C307.131 -11 395 71.4759 395 172.5Z" stroke="#946407" stroke-width="10"/>
<ellipse cx="58.9091" cy="272.141" rx="29.0909" ry="23.2365" fill="#E6FFEA"/>
<ellipse cx="33.8182" cy="304.166" rx="15" ry="10.7884" fill="#C3FBCC" fill-opacity="0.43"/>
<path d="M128.32 223.587C128.121 226.341 127.102 228.508 125.262 230.091C123.434 231.673 121.02 232.464 118.02 232.464C114.738 232.464 112.154 231.362 110.268 229.159C108.393 226.944 107.455 223.909 107.455 220.053V218.489C107.455 216.028 107.889 213.86 108.756 211.985C109.623 210.11 110.86 208.674 112.465 207.678C114.082 206.671 115.957 206.167 118.09 206.167C121.043 206.167 123.422 206.958 125.227 208.54C127.031 210.122 128.074 212.342 128.356 215.202H123.082C122.953 213.549 122.49 212.354 121.693 211.616C120.908 210.866 119.707 210.491 118.09 210.491C116.332 210.491 115.014 211.124 114.135 212.389C113.268 213.643 112.822 215.594 112.799 218.243V220.176C112.799 222.942 113.215 224.964 114.047 226.241C114.891 227.518 116.215 228.157 118.02 228.157C119.649 228.157 120.861 227.788 121.658 227.049C122.467 226.299 122.93 225.145 123.047 223.587H128.32ZM142.137 217.856C141.445 217.762 140.836 217.716 140.309 217.716C138.387 217.716 137.127 218.366 136.529 219.667V232.112H131.449V213.092H136.248L136.389 215.36C137.408 213.614 138.82 212.741 140.625 212.741C141.188 212.741 141.715 212.817 142.207 212.969L142.137 217.856ZM153 232.464C150.211 232.464 147.938 231.608 146.18 229.897C144.434 228.186 143.561 225.907 143.561 223.059V222.567C143.561 220.657 143.93 218.952 144.668 217.452C145.406 215.94 146.449 214.78 147.797 213.971C149.156 213.151 150.703 212.741 152.438 212.741C155.039 212.741 157.084 213.561 158.572 215.202C160.072 216.842 160.822 219.169 160.822 222.18V224.255H148.711C148.875 225.497 149.367 226.493 150.188 227.243C151.02 227.993 152.068 228.368 153.334 228.368C155.291 228.368 156.82 227.659 157.922 226.241L160.418 229.036C159.656 230.114 158.625 230.958 157.324 231.567C156.024 232.165 154.582 232.464 153 232.464ZM152.42 216.854C151.412 216.854 150.592 217.194 149.959 217.874C149.338 218.553 148.94 219.526 148.764 220.792H155.83V220.387C155.807 219.262 155.502 218.395 154.916 217.786C154.33 217.165 153.498 216.854 152.42 216.854ZM174.744 232.112C174.51 231.655 174.34 231.087 174.235 230.407C173.004 231.778 171.404 232.464 169.436 232.464C167.572 232.464 166.026 231.924 164.795 230.846C163.576 229.768 162.967 228.409 162.967 226.768C162.967 224.753 163.711 223.206 165.199 222.128C166.699 221.049 168.861 220.505 171.686 220.493H174.024V219.403C174.024 218.524 173.795 217.821 173.338 217.294C172.893 216.766 172.184 216.503 171.211 216.503C170.356 216.503 169.682 216.708 169.19 217.118C168.709 217.528 168.469 218.091 168.469 218.805H163.389C163.389 217.704 163.729 216.684 164.408 215.747C165.088 214.809 166.049 214.077 167.291 213.549C168.533 213.01 169.928 212.741 171.475 212.741C173.818 212.741 175.676 213.333 177.047 214.516C178.43 215.688 179.121 217.341 179.121 219.473V227.717C179.133 229.522 179.385 230.887 179.877 231.813V232.112H174.744ZM170.543 228.579C171.293 228.579 171.985 228.415 172.617 228.087C173.25 227.747 173.719 227.296 174.024 226.733V223.464H172.125C169.582 223.464 168.229 224.342 168.065 226.1L168.047 226.399C168.047 227.032 168.27 227.553 168.715 227.964C169.16 228.374 169.77 228.579 170.543 228.579ZM189.106 208.417V213.092H192.358V216.819H189.106V226.311C189.106 227.014 189.24 227.518 189.51 227.823C189.779 228.128 190.295 228.28 191.057 228.28C191.619 228.28 192.117 228.239 192.551 228.157V232.007C191.555 232.311 190.529 232.464 189.475 232.464C185.912 232.464 184.096 230.665 184.026 227.067V216.819H181.248V213.092H184.026V208.417H189.106ZM203.942 232.464C201.152 232.464 198.879 231.608 197.121 229.897C195.375 228.186 194.502 225.907 194.502 223.059V222.567C194.502 220.657 194.871 218.952 195.61 217.452C196.348 215.94 197.391 214.78 198.738 213.971C200.098 213.151 201.645 212.741 203.379 212.741C205.981 212.741 208.026 213.561 209.514 215.202C211.014 216.842 211.764 219.169 211.764 222.18V224.255H199.652C199.817 225.497 200.309 226.493 201.129 227.243C201.961 227.993 203.01 228.368 204.276 228.368C206.233 228.368 207.762 227.659 208.863 226.241L211.36 229.036C210.598 230.114 209.567 230.958 208.266 231.567C206.965 232.165 205.524 232.464 203.942 232.464ZM203.361 216.854C202.354 216.854 201.533 217.194 200.901 217.874C200.279 218.553 199.881 219.526 199.705 220.792H206.772V220.387C206.748 219.262 206.443 218.395 205.858 217.786C205.272 217.165 204.44 216.854 203.361 216.854ZM232.787 218.049L238.113 206.518H243.879L235.477 222.831V232.112H230.115V222.831L221.713 206.518H227.496L232.787 218.049ZM243.932 222.426C243.932 220.54 244.295 218.858 245.022 217.382C245.748 215.905 246.791 214.762 248.151 213.954C249.522 213.145 251.11 212.741 252.914 212.741C255.481 212.741 257.572 213.526 259.19 215.096C260.818 216.667 261.727 218.799 261.914 221.495L261.949 222.796C261.949 225.714 261.135 228.057 259.506 229.827C257.877 231.585 255.692 232.464 252.949 232.464C250.207 232.464 248.016 231.585 246.375 229.827C244.746 228.069 243.932 225.678 243.932 222.655V222.426ZM249.012 222.796C249.012 224.6 249.352 225.983 250.031 226.944C250.711 227.893 251.684 228.368 252.949 228.368C254.18 228.368 255.141 227.899 255.832 226.962C256.524 226.012 256.869 224.501 256.869 222.426C256.869 220.657 256.524 219.286 255.832 218.313C255.141 217.341 254.168 216.854 252.914 216.854C251.672 216.854 250.711 217.341 250.031 218.313C249.352 219.274 249.012 220.768 249.012 222.796ZM276.469 230.178C275.215 231.702 273.481 232.464 271.266 232.464C269.227 232.464 267.668 231.878 266.59 230.706C265.524 229.534 264.979 227.817 264.955 225.555V213.092H270.035V225.38C270.035 227.36 270.938 228.35 272.742 228.35C274.465 228.35 275.649 227.753 276.293 226.557V213.092H281.391V232.112H276.61L276.469 230.178ZM295.91 217.856C295.219 217.762 294.61 217.716 294.082 217.716C292.16 217.716 290.901 218.366 290.303 219.667V232.112H285.223V213.092H290.022L290.162 215.36C291.182 213.614 292.594 212.741 294.399 212.741C294.961 212.741 295.488 212.817 295.981 212.969L295.91 217.856ZM150.61 268.839H141.363L139.606 274.112H133.998L143.526 248.518H148.412L157.992 274.112H152.385L150.61 268.839ZM142.787 264.567H149.186L145.969 254.987L142.787 264.567ZM167.959 270.368C168.897 270.368 169.658 270.11 170.244 269.594C170.83 269.079 171.135 268.393 171.158 267.538H175.922C175.91 268.827 175.559 270.01 174.867 271.089C174.176 272.155 173.227 272.987 172.02 273.585C170.824 274.171 169.5 274.464 168.047 274.464C165.328 274.464 163.184 273.602 161.613 271.88C160.043 270.145 159.258 267.755 159.258 264.708V264.374C159.258 261.444 160.037 259.106 161.596 257.36C163.154 255.614 165.293 254.741 168.012 254.741C170.391 254.741 172.295 255.421 173.725 256.78C175.166 258.128 175.899 259.926 175.922 262.176H171.158C171.135 261.192 170.83 260.395 170.244 259.786C169.658 259.165 168.885 258.854 167.924 258.854C166.74 258.854 165.844 259.288 165.235 260.155C164.637 261.01 164.338 262.405 164.338 264.339V264.866C164.338 266.823 164.637 268.229 165.235 269.085C165.832 269.94 166.74 270.368 167.959 270.368ZM186.733 270.368C187.67 270.368 188.432 270.11 189.018 269.594C189.604 269.079 189.908 268.393 189.932 267.538H194.695C194.684 268.827 194.332 270.01 193.641 271.089C192.949 272.155 192 272.987 190.793 273.585C189.598 274.171 188.274 274.464 186.82 274.464C184.102 274.464 181.957 273.602 180.387 271.88C178.817 270.145 178.031 267.755 178.031 264.708V264.374C178.031 261.444 178.811 259.106 180.369 257.36C181.928 255.614 184.067 254.741 186.785 254.741C189.164 254.741 191.068 255.421 192.498 256.78C193.94 258.128 194.672 259.926 194.695 262.176H189.932C189.908 261.192 189.604 260.395 189.018 259.786C188.432 259.165 187.658 258.854 186.697 258.854C185.514 258.854 184.617 259.288 184.008 260.155C183.41 261.01 183.111 262.405 183.111 264.339V264.866C183.111 266.823 183.41 268.229 184.008 269.085C184.606 269.94 185.514 270.368 186.733 270.368ZM196.805 264.426C196.805 262.54 197.168 260.858 197.895 259.382C198.621 257.905 199.664 256.762 201.024 255.954C202.395 255.145 203.983 254.741 205.787 254.741C208.354 254.741 210.445 255.526 212.063 257.096C213.692 258.667 214.6 260.799 214.787 263.495L214.822 264.796C214.822 267.714 214.008 270.057 212.379 271.827C210.75 273.585 208.565 274.464 205.822 274.464C203.08 274.464 200.889 273.585 199.248 271.827C197.619 270.069 196.805 267.678 196.805 264.655V264.426ZM201.885 264.796C201.885 266.6 202.225 267.983 202.904 268.944C203.584 269.893 204.557 270.368 205.822 270.368C207.053 270.368 208.014 269.899 208.705 268.962C209.397 268.012 209.742 266.501 209.742 264.426C209.742 262.657 209.397 261.286 208.705 260.313C208.014 259.341 207.041 258.854 205.787 258.854C204.545 258.854 203.584 259.341 202.904 260.313C202.225 261.274 201.885 262.768 201.885 264.796ZM229.342 272.178C228.088 273.702 226.354 274.464 224.139 274.464C222.1 274.464 220.541 273.878 219.463 272.706C218.397 271.534 217.852 269.817 217.828 267.555V255.092H222.908V267.38C222.908 269.36 223.811 270.35 225.615 270.35C227.338 270.35 228.522 269.753 229.166 268.557V255.092H234.264V274.112H229.483L229.342 272.178ZM242.772 255.092L242.93 257.29C244.289 255.591 246.111 254.741 248.397 254.741C250.412 254.741 251.912 255.333 252.897 256.516C253.881 257.7 254.385 259.469 254.408 261.825V274.112H249.328V261.948C249.328 260.87 249.094 260.091 248.625 259.61C248.156 259.118 247.377 258.872 246.287 258.872C244.858 258.872 243.785 259.481 243.07 260.7V274.112H237.99V255.092H242.772ZM264.358 250.417V255.092H267.61V258.819H264.358V268.311C264.358 269.014 264.492 269.518 264.762 269.823C265.031 270.128 265.547 270.28 266.309 270.28C266.871 270.28 267.369 270.239 267.803 270.157V274.007C266.807 274.311 265.781 274.464 264.727 274.464C261.164 274.464 259.348 272.665 259.277 269.067V258.819H256.5V255.092H259.277V250.417H264.358Z" fill="#8FA584"/>
<ellipse cx="154.5" cy="153.5" rx="226.5" ry="207.5" fill="#C3FBCC" fill-opacity="0.43"/>
<path d="M179.82 190H172.788V175.375H159.077V190H152.046V155.875H159.077V169.703H172.788V155.875H179.82V190ZM197.21 190.469C193.492 190.469 190.46 189.328 188.117 187.047C185.788 184.766 184.624 181.727 184.624 177.93V177.273C184.624 174.727 185.117 172.453 186.101 170.453C187.085 168.438 188.476 166.891 190.273 165.812C192.085 164.719 194.148 164.172 196.46 164.172C199.929 164.172 202.656 165.266 204.64 167.453C206.64 169.641 207.64 172.742 207.64 176.758V179.523H191.492C191.71 181.18 192.367 182.508 193.46 183.508C194.57 184.508 195.968 185.008 197.656 185.008C200.265 185.008 202.304 184.062 203.773 182.172L207.101 185.898C206.085 187.336 204.71 188.461 202.976 189.273C201.242 190.07 199.32 190.469 197.21 190.469ZM196.437 169.656C195.093 169.656 193.999 170.109 193.156 171.016C192.327 171.922 191.796 173.219 191.562 174.906H200.984V174.367C200.952 172.867 200.546 171.711 199.765 170.898C198.984 170.07 197.874 169.656 196.437 169.656ZM218.656 190H211.859V154H218.656V190ZM231.406 190H224.609V154H231.406V190ZM235.952 177.086C235.952 174.57 236.437 172.328 237.406 170.359C238.374 168.391 239.765 166.867 241.577 165.789C243.406 164.711 245.523 164.172 247.929 164.172C251.351 164.172 254.14 165.219 256.296 167.312C258.468 169.406 259.679 172.25 259.929 175.844L259.976 177.578C259.976 181.469 258.89 184.594 256.718 186.953C254.546 189.297 251.632 190.469 247.976 190.469C244.32 190.469 241.398 189.297 239.21 186.953C237.038 184.609 235.952 181.422 235.952 177.391V177.086ZM242.726 177.578C242.726 179.984 243.179 181.828 244.085 183.109C244.992 184.375 246.288 185.008 247.976 185.008C249.617 185.008 250.898 184.383 251.82 183.133C252.742 181.867 253.202 179.852 253.202 177.086C253.202 174.727 252.742 172.898 251.82 171.602C250.898 170.305 249.601 169.656 247.929 169.656C246.273 169.656 244.992 170.305 244.085 171.602C243.179 172.883 242.726 174.875 242.726 177.578Z" fill="#E7FADE"/>
</svg>
