<svg width="111" height="80" viewBox="0 0 111 80" fill="none" xmlns="http://www.w3.org/2000/svg">
<path d="M3.31586 75.1377C3.78784 75.3069 4.29459 75.3493 4.78729 75.2608C5.27999 75.1722 5.74204 74.9558 6.12892 74.6323C7.11421 73.7889 7.4235 72.3995 7.67446 71.1129L8.41788 67.3074L6.86145 68.4004C5.74209 69.1865 4.59761 69.9977 3.82254 71.1363C3.04746 72.2748 2.7092 73.8291 3.33188 75.061" fill="#E4E4E4"/>
<path d="M3.44891 79.745C3.29138 78.5747 3.12936 77.3895 3.23985 76.2066C3.33803 75.1561 3.65219 74.1301 4.29204 73.2888C4.63165 72.8431 5.04488 72.4612 5.51317 72.1603C5.63532 72.0819 5.7476 72.2791 5.62609 72.3573C4.81586 72.8795 4.18917 73.6506 3.83638 74.5595C3.44673 75.5702 3.38418 76.6721 3.45185 77.7457C3.49248 78.3949 3.57849 79.0398 3.66527 79.6842C3.67225 79.7134 3.66805 79.7442 3.65351 79.7703C3.63898 79.7964 3.61521 79.8158 3.58708 79.8246C3.55846 79.8325 3.52795 79.8285 3.50218 79.8136C3.4764 79.7987 3.45744 79.774 3.44942 79.7449L3.44891 79.745Z" fill="#F2F2F2"/>
<path d="M69.722 79.8451H21.6615C20.5224 79.8438 19.4303 79.3817 18.6248 78.5602C17.8194 77.7388 17.3663 76.625 17.365 75.4633V4.38182C17.3663 3.22009 17.8194 2.10632 18.6248 1.28485C19.4303 0.463388 20.5224 0.00131162 21.6615 0H69.722C70.8611 0.00131162 71.9532 0.463388 72.7587 1.28485C73.5641 2.10632 74.0172 3.22009 74.0185 4.38182V75.4633C74.0172 76.625 73.5641 77.7388 72.7586 78.5602C71.9532 79.3817 70.8611 79.8438 69.722 79.8451Z" fill="#3F3D56"/>
<path d="M69.8065 77.0494H21.5769C21.2258 77.049 20.8891 76.9065 20.6408 76.6533C20.3925 76.4001 20.2528 76.0567 20.2524 75.6986V4.14644C20.2528 3.78833 20.3925 3.445 20.6408 3.19177C20.8891 2.93855 21.2258 2.79611 21.5769 2.7957H69.8065C70.1576 2.79611 70.4943 2.93855 70.7426 3.19177C70.9909 3.445 71.1306 3.78833 71.131 4.14644V75.6986C71.1306 76.0567 70.9909 76.4001 70.7426 76.6533C70.4943 76.9065 70.1576 77.049 69.8065 77.0494Z" fill="white"/>
<path d="M45.5089 1.7147C45.7108 1.7147 45.8744 1.54781 45.8744 1.34194C45.8744 1.13607 45.7108 0.969177 45.5089 0.969177C45.3071 0.969177 45.1434 1.13607 45.1434 1.34194C45.1434 1.54781 45.3071 1.7147 45.5089 1.7147Z" fill="white"/>
<path d="M23.4453 35.6808H64.5529V28.4953C64.5467 27.7376 64.3921 26.9888 64.0983 26.2929C63.8044 25.597 63.3772 24.9679 62.8418 24.4426L62.8306 24.4315C62.0964 23.6802 59.6427 21.7734 57.104 21.9351C55.7629 22.0203 54.6147 22.6794 53.6915 23.8942C50.8176 27.6771 47.0425 26.4001 45.0479 25.3023C43.2902 24.3346 41.4951 23.8804 39.7121 23.9527C37.215 24.0523 33.7004 24.9904 31.1372 28.8944C30.1582 30.3843 28.0292 32.4067 23.4453 33.5952L23.4453 35.6808Z" fill="#E4E4E4"/>
<path d="M66.8787 35.8479H23.5243C23.4884 35.8479 23.4539 35.8333 23.4284 35.8074C23.403 35.7814 23.3887 35.7462 23.3887 35.7095L23.4545 35.5556L66.8787 35.5712C66.9147 35.5712 66.9492 35.5857 66.9747 35.6117C67.0001 35.6376 67.0144 35.6728 67.0144 35.7095C67.0144 35.7462 67.0001 35.7814 66.9747 35.8074C66.9492 35.8333 66.9147 35.8479 66.8787 35.8479H66.8787Z" fill="#3F3D56"/>
<path d="M31.7711 27.6985H31.505V35.6532H31.7711V27.6985Z" fill="#3F3D56"/>
<path d="M39.738 23.9833H39.4719V35.6532H39.738V23.9833Z" fill="#3F3D56"/>
<path d="M47.7214 26.4259H47.4553V35.6532H47.7214V26.4259Z" fill="#3F3D56"/>
<path d="M55.7047 21.9479H55.4386V35.6532H55.7047V21.9479Z" fill="#3F3D56"/>
<path d="M63.6881 25.0689H63.422V35.6532H63.6881V25.0689Z" fill="#3F3D56"/>
<path d="M39.6214 25.0006C40.0711 25.0006 40.4355 24.6289 40.4355 24.1704C40.4355 23.7119 40.0711 23.3402 39.6214 23.3402C39.1718 23.3402 38.8074 23.7119 38.8074 24.1704C38.8074 24.6289 39.1718 25.0006 39.6214 25.0006Z" fill="#F47703"/>
<path d="M55.5881 22.8295C56.0377 22.8295 56.4022 22.4578 56.4022 21.9993C56.4022 21.5407 56.0377 21.169 55.5881 21.169C55.1385 21.169 54.774 21.5407 54.774 21.9993C54.774 22.4578 55.1385 22.8295 55.5881 22.8295Z" fill="#F47703"/>
<path d="M47.6047 27.3074C48.0543 27.3074 48.4188 26.9357 48.4188 26.4772C48.4188 26.0187 48.0543 25.647 47.6047 25.647C47.1551 25.647 46.7906 26.0187 46.7906 26.4772C46.7906 26.9357 47.1551 27.3074 47.6047 27.3074Z" fill="#F47703"/>
<path d="M31.6381 28.5287C32.0877 28.5287 32.4521 28.157 32.4521 27.6985C32.4521 27.24 32.0877 26.8683 31.6381 26.8683C31.1885 26.8683 30.824 27.24 30.824 27.6985C30.824 28.157 31.1885 28.5287 31.6381 28.5287Z" fill="#F47703"/>
<path d="M63.5714 25.8148C64.021 25.8148 64.3855 25.4431 64.3855 24.9846C64.3855 24.526 64.021 24.1543 63.5714 24.1543C63.1218 24.1543 62.7573 24.526 62.7573 24.9846C62.7573 25.4431 63.1218 25.8148 63.5714 25.8148Z" fill="#F47703"/>
<path d="M39.3925 64.6307V50.5762C39.3925 50.4896 39.4262 50.4066 39.4862 50.3454C39.5462 50.2842 39.6276 50.2498 39.7125 50.2498H41.1406C41.2255 50.2498 41.3069 50.2842 41.3669 50.3454C41.4269 50.4066 41.4607 50.4896 41.4607 50.5762V64.6673L39.3925 64.6307Z" fill="#3F3D56"/>
<path d="M44.1095 64.6748V53.4995C44.1095 53.413 44.1432 53.3299 44.2032 53.2687C44.2632 53.2075 44.3446 53.1731 44.4295 53.1731H45.8577C45.9425 53.1731 46.0239 53.2075 46.084 53.2687C46.144 53.3299 46.1777 53.413 46.1777 53.4995V64.6507L44.1095 64.6748Z" fill="#3F3D56"/>
<path d="M53.5432 64.6249V48.4263C53.5372 48.3332 53.5675 48.2415 53.6274 48.1711C53.6873 48.1006 53.7721 48.0571 53.8633 48.0501H55.2914C55.3826 48.0571 55.4674 48.1006 55.5273 48.1711C55.5872 48.2415 55.6175 48.3332 55.6115 48.4263V64.6674L53.5432 64.6249Z" fill="#3F3D56"/>
<path d="M34.6755 64.647V56.8265C34.6755 56.7262 34.8188 56.6449 34.9956 56.6449H36.4237C36.6005 56.6449 36.7437 56.7263 36.7437 56.8265V64.6673L34.6755 64.647Z" fill="#3F3D56"/>
<path d="M48.8264 64.6194V46.2369C48.8264 46.0012 48.9697 45.81 49.1464 45.81H50.5746C50.7513 45.81 50.8946 46.0012 50.8946 46.2369V64.6674L48.8264 64.6194Z" fill="#F47703"/>
<path d="M61.7664 64.8366H29.4662C29.4322 64.8366 29.3996 64.8228 29.3756 64.7983C29.3515 64.7738 29.338 64.7406 29.338 64.7059C29.338 64.6712 29.3515 64.638 29.3756 64.6135C29.3996 64.5889 29.4322 64.5752 29.4662 64.5752H61.7664C61.8004 64.5752 61.833 64.5889 61.8571 64.6135C61.8811 64.638 61.8946 64.6712 61.8946 64.7059C61.8946 64.7406 61.8811 64.7738 61.8571 64.7983C61.833 64.8228 61.8004 64.8366 61.7664 64.8366Z" fill="#3F3D56"/>
<path d="M100.253 78.3592L98.7407 78.3591L98.0211 72.4089H100.254L100.253 78.3592Z" fill="#FFB6B6"/>
<path d="M100.639 79.8545L95.7617 79.8543V79.7914C95.7618 79.278 95.9618 78.7855 96.3178 78.4225C96.6738 78.0594 97.1566 77.8554 97.6601 77.8554H97.6602L100.639 77.8555L100.639 79.8545Z" fill="#2F2E41"/>
<path d="M88.7619 78.3082L87.3005 77.9098L88.1124 71.9719L90.2691 72.56L88.7619 78.3082Z" fill="#FFB6B6"/>
<path d="M88.7558 79.8545L84.0439 78.5695L84.0599 78.5088C84.19 78.0127 84.5079 77.5897 84.9438 77.3327C85.3797 77.0758 85.8978 77.0059 86.3842 77.1385L86.3843 77.1385L89.2622 77.9234L88.7558 79.8545Z" fill="#2F2E41"/>
<path d="M101.124 45.0125L102.391 46.5137L100.752 77.0204H97.2518L95.487 53.5467L90.0156 77.6501L86.3768 76.7399L89.6854 46.1255L101.124 45.0125Z" fill="#2F2E41"/>
<path d="M90.5313 25.3171L94.0163 23.5344L99.3757 23.6305L103.988 26.0373L101.364 39.4021L102.497 46.3706H102.497C98.1161 47.51 93.5294 47.5485 89.1305 46.4828L89.0955 46.4743C89.0955 46.4743 91.7005 37.0475 90.5915 34.1708L90.5313 25.3171Z" fill="#E4E4E4"/>
<path d="M100.614 18.194C100.61 17.1274 100.191 16.1058 99.4493 15.3536C98.7077 14.6015 97.7037 14.1801 96.6578 14.1821C95.6118 14.1841 94.6094 14.6092 93.8705 15.3642C93.1316 16.1191 92.7166 17.1423 92.7166 18.209C92.7166 19.2757 93.1316 20.2988 93.8705 21.0537C94.6094 21.8087 95.6118 22.2338 96.6578 22.2358C97.7037 22.2378 98.7077 21.8164 99.4493 21.0643C100.191 20.3121 100.61 19.2905 100.614 18.2239C100.614 18.2139 100.614 18.204 100.614 18.194Z" fill="#FFB6B6"/>
<path d="M94.8969 15.8931C95.1015 15.6968 95.3708 15.586 95.6517 15.5826C96.0735 15.5686 96.7056 15.7214 96.9746 16.0712C97.1908 16.3523 97.2011 16.739 97.202 17.0962L97.2042 18.0822C97.2049 18.3739 97.2084 18.6781 97.3383 18.9379C97.4683 19.1978 97.7666 19.3952 98.0391 19.3066C98.3624 19.2015 98.5045 18.7633 98.8349 18.6845C99.083 18.6254 99.3379 18.8103 99.4464 19.0454C99.538 19.2892 99.5683 19.5524 99.5347 19.8112C99.5034 20.3275 98.7774 20.5323 98.6746 21.0388C98.6151 21.3318 98.4069 21.9163 98.6746 21.7938C99.9084 21.668 100.45 20.933 101.015 20.2412L102.288 18.6808C102.434 18.5258 102.545 18.3414 102.616 18.1394C102.648 17.9979 102.659 17.8525 102.65 17.7077C102.643 17.3198 102.633 16.9321 102.619 16.5445C102.607 16.2058 102.523 15.7785 102.198 15.7089C102.029 15.6727 101.805 15.7358 101.716 15.5849C101.682 15.5093 101.677 15.4239 101.7 15.3445C101.772 14.9574 101.893 14.5525 101.768 14.1797C101.58 13.6175 100.931 13.3868 100.358 13.2807C99.7849 13.1747 99.1414 13.0834 98.7816 12.6161C98.6852 12.4609 98.5808 12.3112 98.4686 12.1675C98.3036 12.0145 98.1008 11.9102 97.882 11.8658C97.1704 11.6821 96.4187 11.7501 95.7499 12.0587C95.4727 12.1878 95.1941 12.3616 94.8899 12.3419C94.574 12.3215 94.3041 12.0947 93.9922 12.0395C93.4883 11.9504 93.0066 12.3354 92.7583 12.7913C92.4506 13.3562 92.4224 14.1299 92.8571 14.6001C93.0739 14.8347 93.3974 14.9958 93.4875 15.3049C93.5241 15.4307 93.5156 15.5662 93.548 15.6931C93.5858 15.8196 93.6578 15.9325 93.7558 16.019C93.8538 16.1055 93.9737 16.1619 94.1018 16.1818C94.4099 16.233 94.6706 16.0891 94.8969 15.8931Z" fill="#2F2E41"/>
<path d="M90.0503 35.0614C90.1253 35.2579 90.2416 35.4353 90.3911 35.5809C90.5406 35.7266 90.7195 35.8371 90.9154 35.9046C91.1113 35.9721 91.3192 35.995 91.5247 35.9716C91.7302 35.9483 91.9282 35.8793 92.1047 35.7695L99.181 39.5844L99.4101 37.8264L92.5341 33.6913C92.3336 33.4011 92.0357 33.1961 91.6968 33.115C91.3579 33.0339 91.0016 33.0823 90.6955 33.2512C90.3893 33.4201 90.1545 33.6977 90.0356 34.0313C89.9167 34.3649 89.9219 34.7315 90.0503 35.0614Z" fill="#FFB6B6"/>
<path d="M99.4803 35.3654C99.365 35.5404 99.2134 35.6875 99.0363 35.7963C98.8592 35.905 98.6609 35.9729 98.4553 35.9951C98.2497 36.0172 98.0418 35.9932 97.8463 35.9245C97.6509 35.8559 97.4725 35.7444 97.3238 35.5979L89.6005 37.7413L89.6677 35.5093L97.3506 33.4742C97.6086 33.2358 97.9433 33.1022 98.2913 33.0987C98.6394 33.0952 98.9766 33.222 99.2392 33.4551C99.5017 33.6882 99.6712 34.0114 99.7157 34.3635C99.7601 34.7156 99.6764 35.0721 99.4803 35.3654V35.3654Z" fill="#FFB6B6"/>
<path d="M102.482 26.1335L103.988 26.0373C103.988 26.0373 105.751 28.4098 104.773 30.9844C104.773 30.9844 104.942 40.2327 101.037 39.8529C97.1323 39.473 95.8984 39.473 95.8984 39.473L97.0706 36.1385L99.6928 35.3128C99.6928 35.3128 98.8846 31.677 100.414 30.1643L102.482 26.1335Z" fill="#E4E4E4"/>
<path d="M91.6079 26.0522L91.395 24.9396C91.395 24.9396 88.2562 24.8644 87.6356 29.715C87.6356 29.715 84.813 36.9744 87.5797 37.9091C90.3463 38.8438 93.3896 37.9091 93.3896 37.9091L93.1603 34.7078L90.1162 34.0742C90.1162 34.0742 91.6887 31.9993 90.8324 30.1996L91.6079 26.0522Z" fill="#E4E4E4"/>
<path d="M110.872 80H0.128176C0.0941813 80 0.0615792 79.9862 0.0375416 79.9617C0.0135041 79.9372 0 79.9039 0 79.8693C0 79.8346 0.0135041 79.8014 0.0375416 79.7768C0.0615792 79.7523 0.0941813 79.7386 0.128176 79.7386H110.872C110.906 79.7386 110.938 79.7523 110.962 79.7768C110.987 79.8014 111 79.8346 111 79.8693C111 79.9039 110.987 79.9372 110.962 79.9617C110.938 79.9862 110.906 80 110.872 80Z" fill="#CACACA"/>
</svg>
