<svg width="111" height="80" viewBox="0 0 111 80" fill="none" xmlns="http://www.w3.org/2000/svg">
<g clip-path="url(#clip0_105_66)">
<path d="M6.6356 75.6993C6.6356 75.6993 1.88481 75.4402 2.44452 78.4506C2.44452 78.4506 2.33213 78.982 2.86599 79.2238C2.86599 79.2238 2.87498 79.0002 3.35377 79.0764C3.52413 79.1024 3.69731 79.1099 3.86964 79.0988C4.10294 79.0844 4.32468 79.0016 4.50128 78.8631C4.50128 78.8631 5.83649 78.3642 6.35687 76.3911C6.35687 76.3911 6.74124 75.9604 6.72551 75.8496L5.92416 76.1544C5.92416 76.1544 6.19727 76.6777 5.9826 77.1115C5.9826 77.1115 5.95563 76.1737 5.80165 76.1971C5.77018 76.2022 5.3858 76.379 5.3858 76.379C5.3858 76.379 5.85672 77.2934 5.49819 77.9517C5.49819 77.9517 5.63306 76.829 5.2352 76.444L4.67324 76.7427C4.67324 76.7427 5.22508 77.6835 4.85082 78.4506C4.85082 78.4506 4.94635 77.273 4.55523 76.8148L4.04385 77.1755C4.04385 77.1755 4.56085 78.1031 4.24503 78.7391C4.24503 78.7391 4.20457 77.3685 3.93258 77.2649C3.93258 77.2649 3.48302 77.6215 3.41671 77.7729C3.41671 77.7729 3.77186 78.4455 3.55157 78.8011C3.55157 78.8011 3.41671 77.8867 3.30656 77.8867C3.30656 77.8867 2.857 78.4912 2.81429 78.9027C2.81429 78.9027 2.83339 78.285 3.19754 77.8247C2.9405 77.8684 2.7033 77.9794 2.51533 78.1438C2.51533 78.1438 2.58501 77.716 3.30769 77.6784C3.30769 77.6784 3.67633 77.2202 3.77523 77.1918C3.77523 77.1918 3.05593 77.1379 2.61985 77.3127C2.61985 77.3127 3.00311 76.9063 3.90673 77.0922L4.41249 76.7193C4.41249 76.7193 3.46503 76.6025 3.0638 76.7315C3.0638 76.7315 3.52573 76.3749 4.54849 76.635L5.09808 76.3383C5.09808 76.3383 4.28999 76.1808 3.80895 76.2367C3.80895 76.2367 4.31696 75.9888 5.2588 76.257L5.65217 76.0975C5.65217 76.0975 5.05987 75.9959 4.88679 75.9756C4.7137 75.9553 4.70471 75.9157 4.70471 75.9157C5.07953 75.8592 5.46434 75.8979 5.81626 76.0274C5.81626 76.0274 6.65021 75.747 6.6356 75.6993Z" fill="#055669"/>
<path opacity="0.1" d="M3.36275 80C5.21995 80 6.7255 79.7698 6.7255 79.4859C6.7255 79.202 5.21995 78.9718 3.36275 78.9718C1.50555 78.9718 0 79.202 0 79.4859C0 79.7698 1.50555 80 3.36275 80Z" fill="#055669"/>
<path d="M110.949 68.8626C110.949 68.8626 108.27 68.7163 108.589 70.413C108.573 70.4993 108.587 70.588 108.63 70.6664C108.673 70.7449 108.742 70.8091 108.827 70.8499C108.827 70.8499 108.827 70.7239 109.102 70.7666C109.198 70.7809 109.296 70.785 109.393 70.7788C109.524 70.771 109.649 70.7246 109.749 70.6467C109.749 70.6467 110.502 70.3653 110.795 69.2527C110.795 69.2527 111.011 69.0099 111.003 68.9479L110.554 69.1227C110.554 69.1227 110.708 69.4173 110.586 69.6632C110.586 69.6632 110.572 69.1339 110.485 69.1461C110.467 69.1461 110.249 69.2477 110.249 69.2477C110.249 69.2477 110.516 69.7557 110.315 70.1336C110.315 70.1336 110.391 69.5017 110.167 69.2842L109.848 69.4519C109.848 69.4519 110.159 69.9833 109.948 70.4161C109.948 70.4161 110.003 69.7516 109.782 69.4935L109.493 69.6967C109.493 69.6967 109.785 70.219 109.605 70.5786C109.605 70.5786 109.582 69.8054 109.429 69.7475C109.319 69.831 109.222 69.9262 109.138 70.031C109.138 70.031 109.338 70.41 109.214 70.6111C109.214 70.6111 109.138 70.096 109.075 70.094C109.075 70.094 108.824 70.4344 108.798 70.668C108.81 70.4512 108.884 70.241 109.014 70.0584C108.869 70.0833 108.735 70.1462 108.63 70.2393C108.63 70.2393 108.669 69.9975 109.079 69.9761C109.079 69.9761 109.287 69.7181 109.343 69.7018C109.343 69.7018 108.938 69.6713 108.691 69.7699C108.691 69.7699 108.908 69.5423 109.417 69.6459L109.702 69.4356C109.702 69.4356 109.168 69.3696 108.942 69.4427C108.942 69.4427 109.203 69.2395 109.778 69.3879L110.088 69.2202C109.85 69.173 109.606 69.1543 109.362 69.1644C109.362 69.1644 109.648 69.0241 110.179 69.1755L110.404 69.0851C110.404 69.0851 110.067 69.0262 109.974 69.017C109.881 69.0079 109.87 68.9835 109.87 68.9835C110.082 68.9517 110.299 68.9735 110.498 69.0465C110.498 69.0465 110.957 68.889 110.949 68.8626Z" fill="#055669"/>
<path opacity="0.1" d="M109.104 71.2867C110.151 71.2867 111 71.1571 111 70.9971C111 70.8372 110.151 70.7076 109.104 70.7076C108.057 70.7076 107.208 70.8372 107.208 70.9971C107.208 71.1571 108.057 71.2867 109.104 71.2867Z" fill="#055669"/>
<path d="M105.44 73.4823C105.44 73.4823 102.205 73.3066 102.592 75.3569C102.572 75.461 102.589 75.568 102.641 75.6627C102.693 75.7574 102.776 75.8349 102.88 75.8842C102.88 75.8842 102.88 75.7318 103.217 75.7826C103.333 75.8003 103.451 75.8054 103.569 75.7978C103.727 75.7878 103.878 75.7315 103.998 75.6373C103.998 75.6373 104.907 75.2979 105.26 73.9548C105.26 73.9548 105.522 73.6612 105.512 73.586L104.966 73.7973C104.966 73.7973 105.152 74.1529 105.006 74.4486C105.006 74.4486 104.988 73.8095 104.884 73.8247C104.862 73.8247 104.599 73.9477 104.599 73.9477C104.599 73.9477 104.921 74.5684 104.678 75.0185C104.678 75.0185 104.77 74.2545 104.499 73.9934L104.115 74.1966C104.115 74.1966 104.49 74.8377 104.236 75.3599C104.236 75.3599 104.301 74.5583 104.034 74.2423L103.687 74.4872C103.687 74.4872 104.038 75.1191 103.824 75.5519C103.824 75.5519 103.796 74.6192 103.61 74.5491C103.61 74.5491 103.306 74.791 103.26 74.8915C103.26 74.8915 103.501 75.3498 103.352 75.5916C103.352 75.5916 103.26 74.9698 103.184 74.9667C103.184 74.9667 102.881 75.3782 102.847 75.6606C102.862 75.3997 102.952 75.1468 103.109 74.9271C102.934 74.9571 102.772 75.0326 102.644 75.1445C102.644 75.1445 102.691 74.8539 103.183 74.8285C103.183 74.8285 103.434 74.5156 103.501 74.4963C103.501 74.4963 103.011 74.4597 102.714 74.5786C102.714 74.5786 102.976 74.3043 103.591 74.4293L103.935 74.1753C103.935 74.1753 103.29 74.095 103.017 74.1834C103.017 74.1834 103.331 73.9406 104.028 74.1173L104.403 73.9141C104.403 73.9141 103.853 73.8075 103.526 73.8461C103.526 73.8461 103.871 73.6774 104.513 73.8603L104.78 73.7516C104.78 73.7516 104.377 73.6794 104.26 73.6683C104.143 73.6571 104.135 73.6276 104.135 73.6276C104.39 73.5893 104.652 73.6156 104.891 73.7038C104.891 73.7038 105.449 73.5149 105.44 73.4823Z" fill="#055669"/>
<path opacity="0.1" d="M103.211 76.4095C104.476 76.4095 105.501 76.253 105.501 76.06C105.501 75.8669 104.476 75.7104 103.211 75.7104C101.947 75.7104 100.922 75.8669 100.922 76.06C100.922 76.253 101.947 76.4095 103.211 76.4095Z" fill="#055669"/>
<path opacity="0.1" d="M90.5299 75.2685C96.261 75.2685 100.907 74.613 100.907 73.8045C100.907 72.9959 96.261 72.3404 90.5299 72.3404C84.7988 72.3404 80.1528 72.9959 80.1528 73.8045C80.1528 74.613 84.7988 75.2685 90.5299 75.2685Z" fill="#055669"/>
<path opacity="0.1" d="M57.693 79.0785C64.133 79.0785 69.3536 78.6049 69.3536 78.0208C69.3536 77.4367 64.133 76.9632 57.693 76.9632C51.253 76.9632 46.0323 77.4367 46.0323 78.0208C46.0323 78.6049 51.253 79.0785 57.693 79.0785Z" fill="#055669"/>
<path opacity="0.1" d="M22.3647 78.028C27.2529 78.028 31.2156 77.8069 31.2156 77.5342C31.2156 77.2615 27.2529 77.0404 22.3647 77.0404C17.4766 77.0404 13.5139 77.2615 13.5139 77.5342C13.5139 77.8069 17.4766 78.028 22.3647 78.028Z" fill="#055669"/>
<path opacity="0.1" d="M38.0796 3.47979C41.3626 0.838182 46.5168 0.296653 51.2069 0.506966C65.9403 1.16838 79.2396 7.59866 90.744 14.8722C94.9092 17.5047 99.0092 20.3424 101.712 23.9685C107.219 31.3487 105.583 41.5738 97.9314 47.6545C95.3273 49.7231 92.1713 51.3121 88.9311 52.7152C83.1699 55.2156 76.9535 57.2222 70.4157 57.7952C65.7526 58.2016 61.0322 57.8714 56.3972 57.3025C43.4452 55.7134 30.7326 52.2021 20.0779 46.1976C15.4046 43.556 10.9989 40.2844 9.0725 36.0223C7.14612 31.7602 8.37905 26.3591 13.1512 23.8364C15.1248 22.793 17.485 22.3215 19.7946 21.8796C23.1956 21.2283 26.6505 20.5862 29.7199 19.2613C32.8894 17.8938 36.6421 15.2492 36.0138 12.2225C35.3417 8.97432 34.8011 6.12139 38.0796 3.47979Z" fill="#055669"/>
<path opacity="0.9" d="M65.2838 39.8049V20.4054H68.206V14.6142H47.2675V20.4054H50.1896V39.8049C46.1541 41.1905 42.68 43.6525 40.2283 46.8643C37.7766 50.0761 36.4631 53.8859 36.4622 57.7882C36.4622 68.4105 45.9885 77.0211 57.739 77.0211C69.4895 77.0211 79.0147 68.4105 79.0147 57.7882C79.0136 53.8855 77.6997 50.0754 75.2473 46.8635C72.7949 43.6516 69.32 41.1899 65.2838 39.8049Z" fill="#96B7FE"/>
<path opacity="0.1" d="M65.2837 20.3454H50.1851V20.6065H65.2837V20.3454Z" fill="black"/>
<path d="M45.8342 57.272C45.8342 57.272 58.6469 57.0688 65.0532 54.1702C71.4595 51.2715 75.1201 53.8593 74.7762 55.618C74.4322 57.3767 72.6036 60.7874 65.2824 61.206C57.9613 61.6246 45.8342 57.272 45.8342 57.272Z" fill="#055669"/>
<path opacity="0.1" d="M45.8342 57.272C45.8342 57.272 58.6469 57.0688 65.0532 54.1702C71.4595 51.2715 75.1201 53.8593 74.7762 55.618C74.4322 57.3767 72.6036 60.7874 65.2824 61.206C57.9613 61.6246 45.8342 57.272 45.8342 57.272Z" fill="black"/>
<path d="M40.3475 55.4128C40.3475 55.4128 38.9785 72.5782 56.9331 72.8881C74.8877 73.1979 74.7775 55.616 74.7775 55.616C74.7775 55.616 68.1464 62.1296 52.4723 56.7529C52.4723 56.757 44.3508 54.792 40.3475 55.4128Z" fill="#055669"/>
<path opacity="0.1" d="M74.719 55.6779C74.3605 59.6321 72.0351 72.0101 56.9398 71.749C42.1424 71.496 40.4666 59.8018 40.3351 55.688C40.2531 57.8958 40.3261 72.5994 56.9365 72.8869C74.8955 73.1917 74.7808 55.6149 74.7808 55.6149C74.7808 55.6149 74.7584 55.6403 74.719 55.6779Z" fill="black"/>
<path opacity="0.3" d="M57.0421 50.1123C58.3288 50.1123 59.372 49.1693 59.372 48.0061C59.372 46.8429 58.3288 45.9 57.0421 45.9C55.7553 45.9 54.7122 46.8429 54.7122 48.0061C54.7122 49.1693 55.7553 50.1123 57.0421 50.1123Z" fill="#055669"/>
<path opacity="0.3" d="M58.3728 40.8839C59.1692 40.8839 59.8148 40.3003 59.8148 39.5804C59.8148 38.8605 59.1692 38.2769 58.3728 38.2769C57.5765 38.2769 56.9309 38.8605 56.9309 39.5804C56.9309 40.3003 57.5765 40.8839 58.3728 40.8839Z" fill="#055669"/>
<path opacity="0.3" d="M55.1551 33.3604C55.9515 33.3604 56.5971 32.7768 56.5971 32.0569C56.5971 31.337 55.9515 30.7534 55.1551 30.7534C54.3587 30.7534 53.7131 31.337 53.7131 32.0569C53.7131 32.7768 54.3587 33.3604 55.1551 33.3604Z" fill="#055669"/>
<path opacity="0.2" d="M42.7998 49.6307C42.6762 50.5187 42.7009 51.6302 43.5787 52.0447C42.8425 51.6972 45.8602 47.7572 45.432 46.9525C44.516 45.2355 42.9122 48.8057 42.7998 49.6307Z" fill="white"/>
<path opacity="0.3" d="M53.9895 10.7432C55.2763 10.7432 56.3194 9.80023 56.3194 8.63703C56.3194 7.47382 55.2763 6.53085 53.9895 6.53085C52.7028 6.53085 51.6597 7.47382 51.6597 8.63703C51.6597 9.80023 52.7028 10.7432 53.9895 10.7432Z" fill="#055669"/>
<path opacity="0.3" d="M60.9791 6.5918C61.9355 6.5918 62.7109 5.89083 62.7109 5.02614C62.7109 4.16145 61.9355 3.46048 60.9791 3.46048C60.0226 3.46048 59.2472 4.16145 59.2472 5.02614C59.2472 5.89083 60.0226 6.5918 60.9791 6.5918Z" fill="#055669"/>
<path opacity="0.3" d="M55.9869 1.62764C56.4841 1.62764 56.8871 1.26328 56.8871 0.813818C56.8871 0.364359 56.4841 0 55.9869 0C55.4897 0 55.0867 0.364359 55.0867 0.813818C55.0867 1.26328 55.4897 1.62764 55.9869 1.62764Z" fill="#055669"/>
<path opacity="0.9" d="M31.8978 26.7391H13.0688V31.7876H15.9382V71.174C15.9268 71.9576 16.0878 72.7355 16.4117 73.4625C16.7355 74.1894 17.2159 74.851 17.8249 75.4088C18.4339 75.9666 19.1594 76.4095 19.9593 76.7118C20.7592 77.0141 21.6175 77.1697 22.4844 77.1697C23.3514 77.1697 24.2097 77.0141 25.0096 76.7118C25.8095 76.4095 26.5349 75.9666 27.1439 75.4088C27.7529 74.851 28.2333 74.1894 28.5572 73.4625C28.8811 72.7355 29.042 71.9576 29.0307 71.174V31.7876H31.8978V26.7391Z" fill="#96B7FE"/>
<path d="M20.3 40.7112C20.3 40.7112 24.9598 39.2065 26.2568 40.2764C26.2568 40.2764 24.3697 42.7838 22.6322 42.6833C20.8946 42.5827 20.3 40.7112 20.3 40.7112Z" fill="#055669"/>
<path opacity="0.1" d="M20.3 40.7112C20.3 40.7112 24.9598 39.2065 26.2568 40.2764C26.2568 40.2764 24.3697 42.7838 22.6322 42.6833C20.8946 42.5827 20.3 40.7112 20.3 40.7112Z" fill="black"/>
<path d="M26.2546 40.2804V68.8667C26.2546 69.3408 26.1512 69.8104 25.9505 70.2485C25.7498 70.6866 25.4555 71.0846 25.0846 71.4199C24.7137 71.7552 24.2734 72.0212 23.7887 72.2027C23.3041 72.3841 22.7847 72.4775 22.2601 72.4775C21.2008 72.4775 20.1848 72.0971 19.4357 71.4199C18.6866 70.7428 18.2657 69.8243 18.2657 68.8667V40.2804C18.2657 40.2804 20.1888 39.812 22.0005 40.8159C23.8123 41.8197 26.2546 40.2804 26.2546 40.2804Z" fill="#055669"/>
<path opacity="0.1" d="M29.0284 31.7562H15.9359V31.9888H29.0284V31.7562Z" fill="black"/>
<path opacity="0.1" d="M22.2601 70.7391C21.7355 70.7391 21.216 70.6457 20.7313 70.4642C20.2466 70.2827 19.8062 70.0166 19.4353 69.6812C19.0644 69.3458 18.7702 68.9476 18.5695 68.5094C18.3688 68.0712 18.2656 67.6015 18.2657 67.1273V68.9327C18.2657 69.8904 18.6866 70.8088 19.4357 71.486C20.1848 72.1631 21.2008 72.5436 22.2601 72.5436C23.3195 72.5436 24.3355 72.1631 25.0846 71.486C25.8337 70.8088 26.2546 69.8904 26.2546 68.9327V67.1273C26.2547 67.6015 26.1515 68.0712 25.9508 68.5094C25.7501 68.9476 25.4559 69.3458 25.085 69.6812C24.7141 70.0166 24.2737 70.2827 23.789 70.4642C23.3043 70.6457 22.7848 70.7391 22.2601 70.7391Z" fill="black"/>
<path opacity="0.3" d="M22.2613 37.4732C22.7107 37.4732 23.0751 37.1439 23.0751 36.7376C23.0751 36.3313 22.7107 36.002 22.2613 36.002C21.8119 36.002 21.4476 36.3313 21.4476 36.7376C21.4476 37.1439 21.8119 37.4732 22.2613 37.4732Z" fill="#055669"/>
<path opacity="0.3" d="M24.924 34.598C25.2102 34.598 25.4421 34.3883 25.4421 34.1296C25.4421 33.8709 25.2102 33.6612 24.924 33.6612C24.6379 33.6612 24.4059 33.8709 24.4059 34.1296C24.4059 34.3883 24.6379 34.598 24.924 34.598Z" fill="#055669"/>
<path opacity="0.3" d="M21.2991 33.6622C21.5853 33.6622 21.8173 33.4525 21.8173 33.1938C21.8173 32.9351 21.5853 32.7254 21.2991 32.7254C21.013 32.7254 20.781 32.9351 20.781 33.1938C20.781 33.4525 21.013 33.6622 21.2991 33.6622Z" fill="#055669"/>
<path opacity="0.2" d="M16.9498 46.1204C16.8262 47.0084 16.8509 48.1199 17.7287 48.5344C16.9914 48.1869 20.0103 44.2479 19.5821 43.4422C18.6638 41.7272 17.0622 45.2964 16.9498 46.1204Z" fill="white"/>
<path opacity="0.3" d="M23.9496 23.5804C25.0415 23.5804 25.9266 22.7803 25.9266 21.7933C25.9266 20.8062 25.0415 20.0061 23.9496 20.0061C22.8578 20.0061 21.9727 20.8062 21.9727 21.7933C21.9727 22.7803 22.8578 23.5804 23.9496 23.5804Z" fill="#055669"/>
<path opacity="0.3" d="M18.0185 20.0579C18.8304 20.0579 19.4886 19.4629 19.4886 18.729C19.4886 17.995 18.8304 17.4001 18.0185 17.4001C17.2066 17.4001 16.5485 17.995 16.5485 18.729C16.5485 19.4629 17.2066 20.0579 18.0185 20.0579Z" fill="#055669"/>
<path opacity="0.3" d="M22.2546 15.8456C22.6767 15.8456 23.0189 15.5362 23.0189 15.1547C23.0189 14.7731 22.6767 14.4638 22.2546 14.4638C21.8325 14.4638 21.4904 14.7731 21.4904 15.1547C21.4904 15.5362 21.8325 15.8456 22.2546 15.8456Z" fill="#055669"/>
<path d="M100.687 45.8542C100.687 45.8542 98.9618 38.098 99.6216 37.1328C99.6216 37.1328 99.6452 36.2357 99.6058 35.0927C99.6058 35.049 99.6058 35.0053 99.6058 34.9606C99.7214 35.0319 99.8423 35.0957 99.9677 35.1516C100.576 35.4351 101.275 35.5167 101.942 35.3823L101.418 34.856C101.293 34.73 101.161 34.5949 101.134 34.4282C101.127 34.268 101.166 34.1087 101.247 33.966C101.742 32.8331 101.773 31.4077 100.813 30.543C100.006 29.8156 99.8081 28.8768 98.936 28.2133C98.2954 27.7267 97.9436 27.0135 97.6109 26.3256C97.3299 25.7424 97.0489 25.1552 96.886 24.5375C96.7601 24.0549 96.7106 23.556 96.5376 23.0846C96.3645 22.6131 96.043 22.1549 95.5384 21.9446C95.3513 21.8855 95.1697 21.8128 94.9955 21.7272C94.7798 21.5961 94.6505 21.3828 94.4954 21.1968C93.7087 20.2509 91.0562 20.8077 89.8019 21.1918C89.4614 21.2883 89.1459 21.4463 88.8747 21.6561L88.886 21.6388L88.9174 21.5971C88.7805 21.6974 88.6622 21.8168 88.5668 21.9507C88.3836 22.2128 88.3071 22.5207 88.1554 22.797C87.9711 23.1323 86.9483 24.0681 87.3878 24.445C87.418 24.4702 87.4525 24.4908 87.4901 24.506C87.6541 24.5665 87.8341 24.5828 88.0082 24.5527C88.0014 24.5659 87.9947 24.5791 87.9891 24.5923C87.8397 24.925 87.7634 25.2808 87.7643 25.6398C87.7717 26.3914 88.1091 27.1096 88.7022 27.6364C89.2952 28.1633 90.0955 28.4556 90.927 28.4491C91.2556 28.4495 91.5824 28.4043 91.8958 28.3149C91.9037 28.3505 91.9104 28.3861 91.9172 28.4216C91.9172 28.4369 91.9172 28.4511 91.925 28.4653L91.8699 28.5354L91.861 28.5222L90.2212 30.5949C89.9705 30.7534 88.5263 31.6982 88.4488 32.4064C88.3633 33.1816 88.2779 34.0899 88.2779 34.0899L88.2667 34.284C88.1951 34.338 88.1114 34.3774 88.0214 34.3995C87.9314 34.4216 87.8372 34.4259 87.7452 34.412C87.2338 34.3358 87.2338 36.1148 87.2338 36.1148C87.2338 36.1148 86.8966 36.3983 86.6595 36.1524C86.4223 35.9065 85.8076 36.7386 85.8076 36.7386L81.9312 36.89H81.8424L81.6333 36.3048C81.6105 36.2443 81.5625 36.1943 81.4997 36.1651C81.4368 36.1359 81.3638 36.1299 81.2962 36.1483C81.2797 36.1524 81.2639 36.1582 81.249 36.1656L81.2355 36.1737C81.2259 36.1786 81.2168 36.1844 81.2085 36.191C81.2031 36.1942 81.1982 36.1979 81.1939 36.2022C81.1862 36.2081 81.1791 36.2145 81.1725 36.2215C81.1685 36.2257 81.1648 36.2301 81.1613 36.2347L81.1546 36.2408C81.1304 36.2709 81.1144 36.3057 81.1078 36.3424C81.1011 36.379 81.1041 36.4166 81.1163 36.4521L81.2962 36.954C80.5488 37.0902 79.7834 37.4732 80.4071 38.5298L77.2467 38.0025L78.2695 38.7777L83.5519 39.7633C83.4822 39.8771 83.5283 40.0406 83.7463 40.2713C84.6848 41.269 86.3999 41.5392 87.0888 41.6104C87.2698 41.9773 87.496 42.3246 87.7632 42.6457L87.7025 43.6393C87.7025 43.6393 85.9582 51.2177 85.6378 51.6027C85.7962 51.4364 85.9408 51.2598 86.0706 51.0744C85.5637 52.6319 84.8556 54.7635 84.6702 55.0825C84.3712 55.5905 84.0947 57.6551 84.4353 57.7882C84.542 57.8288 84.8376 57.8095 85.2636 57.78V57.9507L85.2445 64.4277C85.2445 64.4277 85.3299 68.4013 85.095 68.7793C84.8601 69.1572 84.7972 69.9517 84.7972 69.9517C84.7972 69.9517 83.8553 71.5194 83.1113 72.1493L83.0944 72.1625L83.0708 72.0142C83.0708 72.0142 82.1717 73.0363 80.1959 72.9794C80.1959 72.9794 79.0034 73.6794 80.7713 73.717C82.5392 73.7546 84.796 73.6601 84.796 73.6601C84.796 73.6601 86.3695 71.4849 87.6924 71.7683V73.4143H88.097V71.7541C88.2845 71.6423 88.445 71.4972 88.5686 71.3276C88.6923 71.158 88.7765 70.9675 88.8163 70.7676C88.8512 70.562 88.8261 70.3518 88.7435 70.1578C88.6609 69.9637 88.5236 69.7925 88.3454 69.6611C88.2652 69.5955 88.2008 69.5156 88.1564 69.4264C88.1119 69.3373 88.0882 69.2408 88.0869 69.143L88.0722 69.1542C88.0722 69.1217 88.0633 69.0881 88.0576 69.0526C87.9452 68.2012 87.798 66.4496 88.3105 65.1511C89.013 63.3721 89.2265 60.8951 88.7151 59.4188C88.5504 58.9476 88.4154 58.4683 88.3105 57.9832C88.2981 57.9212 88.2858 57.8633 88.2757 57.8085C88.6258 57.8516 88.9723 57.9158 89.313 58.0005C90.4999 58.2951 93.0928 58.35 95.3069 58.3348C95.3125 58.3896 95.3192 58.4465 95.326 58.5044C95.3665 58.9037 95.4501 59.2984 95.5755 59.683C95.852 60.4409 95.9801 63.7694 95.9801 63.7694C95.9801 63.7694 96.3386 66.5075 96.1431 67.6231C96.0307 68.2428 95.9363 68.8646 95.8744 69.4894V69.5016C95.8744 69.5016 95.2878 71.0145 94.8629 71.8384C94.8517 71.8598 94.8416 71.8801 94.8303 71.9004C94.7154 71.9099 94.6022 71.9321 94.4932 71.9665C94.4932 71.9665 93.9188 73.0068 93.3434 73.1775C92.768 73.3482 92.9601 73.9151 94.2594 73.7069C95.5586 73.4986 97.5187 73.3289 97.5187 73.3289L97.6042 72.2692L98.0031 71.8181L97.902 72.8748L98.328 72.7996L98.2718 71.5133L98.9248 70.7747C98.9248 70.7747 99.7115 70.1407 98.5415 68.8931V68.9195C98.5291 68.9012 98.5168 68.8829 98.5033 68.8656V68.8595C98.31 68.5872 98.1549 68.0803 98.4381 67.1801C98.9495 65.5545 99.2473 64.0782 99.2473 64.0782C99.2473 64.0782 100.39 60.125 99.0158 58.2535H99.0776C98.9366 57.9902 98.8367 57.7105 98.7809 57.4224C98.7742 57.3878 98.7685 57.3523 98.7618 57.3208C99.7733 57.268 100.777 57.1013 101.59 56.7437C101.581 56.7325 101.092 47.3487 100.687 45.8542ZM87.7811 39.3111V39.3294L87.571 39.3386L87.7811 39.3111ZM87.0652 39.4005C87.0306 39.4072 86.9983 39.4211 86.9708 39.4412C86.8812 39.5562 86.8248 39.6896 86.8067 39.8293L86.4808 39.7622C86.4808 39.7622 86.256 39.7186 85.9188 39.6698L85.7626 39.5286C86.1964 39.492 86.6415 39.4483 87.0652 39.4005Z" fill="url(#paint0_linear_105_66)"/>
<path d="M97.8494 71.5225L97.7246 72.8616L98.1416 72.7854L98.0786 71.3345L97.8494 71.5225Z" fill="#1D2366"/>
<path d="M88.3398 65.1694C87.8374 66.4628 87.9812 68.2093 88.0936 69.0577C88.1352 69.3716 88.1734 69.5657 88.1734 69.5657C88.1734 69.5657 87.4227 71.112 87.3597 71.1689C87.2968 71.2258 85.1479 72.4105 85.1479 72.4105L83.6463 73.2019C83.6463 73.2019 82.1234 72.5984 82.8596 72.3891C83.0086 72.3349 83.1428 72.252 83.2529 72.1463C83.9812 71.5184 84.904 69.9568 84.904 69.9568C84.904 69.9568 84.9658 69.1654 85.1951 68.7884C85.4243 68.4115 85.3412 64.4521 85.3412 64.4521L85.3603 57.9964V57.1552L88.2173 57.1745C88.2357 57.4603 88.277 57.7445 88.3409 58.0249C88.4438 58.5081 88.5766 58.9857 88.7388 59.4554C89.2355 60.9296 89.0276 63.3965 88.3398 65.1694Z" fill="#FFB0B1"/>
<path opacity="0.1" d="M88.1723 69.5656C88.1723 69.5656 87.4215 71.112 87.3586 71.1689C87.2957 71.2258 85.1478 72.4105 85.1478 72.4105L83.6463 73.2019C83.6463 73.2019 82.1234 72.5984 82.8596 72.3891C83.0086 72.3349 83.1428 72.252 83.2529 72.1463L83.3181 72.5588L83.8194 72.5395L88.0936 69.0576C88.1341 69.3705 88.1723 69.5656 88.1723 69.5656Z" fill="black"/>
<path d="M88.1203 69.1471L83.8135 72.6543L83.3122 72.6726L83.2088 72.0132C83.2088 72.0132 82.3321 73.0292 80.3923 72.9744C80.3923 72.9744 79.2245 73.6723 80.9542 73.7099C82.6839 73.7475 84.8969 73.653 84.8969 73.653C84.8969 73.653 86.4401 71.4849 87.7326 71.7684V73.4082H88.1293V71.7491C88.3138 71.6367 88.4713 71.4917 88.5922 71.3229C88.7131 71.154 88.795 70.9648 88.8329 70.7666C88.8674 70.5624 88.8432 70.3536 88.7625 70.1603C88.6818 69.967 88.5473 69.7958 88.3721 69.6632C88.2934 69.5972 88.2305 69.5174 88.1872 69.4287C88.1439 69.3399 88.1211 69.2441 88.1203 69.1471Z" fill="#1D2366"/>
<path d="M98.2457 67.1862C97.9681 68.0833 98.1198 68.5883 98.3086 68.8595V68.8656C98.5542 69.2014 98.7248 69.5772 98.811 69.9721L98.829 70.0574L96.8689 72.6401L95.8057 73.017C95.8057 73.017 94.0951 72.4897 94.4075 72.3383C94.4862 72.3007 94.6087 72.1057 94.7447 71.8303C95.1639 71.0175 95.7394 69.5078 95.7394 69.5078V69.4945C95.7989 68.8717 95.8956 68.252 96.0023 67.6342C96.1934 66.5238 95.8428 63.7948 95.8428 63.7948C95.8428 63.7948 95.718 60.4775 95.446 59.7226C95.3237 59.339 95.2421 58.9457 95.2021 58.5481C95.1459 58.0737 95.1336 57.6866 95.1336 57.6866C95.1336 57.6866 96.2575 56.2723 98.3244 57.7993C98.4888 57.9219 98.6336 58.0645 98.7548 58.223C100.181 60.0518 99.0335 64.0965 99.0335 64.0965C99.0335 64.0965 98.7458 65.5657 98.2457 67.1862Z" fill="#FFB0B1"/>
<path opacity="0.1" d="M98.829 70.0523L96.8689 72.6349L95.8057 73.0119C95.8057 73.0119 94.0951 72.4846 94.4075 72.3332C94.4862 72.2956 94.6087 72.1005 94.7447 71.8252C95.4685 71.8252 95.8439 72.4429 95.8439 72.4429L96.761 72.3119C96.761 72.3119 97.9714 70.162 98.2423 70.0309C98.5132 69.8999 98.2839 69.0495 98.2839 69.0495V68.8331L98.3052 68.8564V68.8625C98.5524 69.1989 98.7242 69.5759 98.811 69.972L98.829 70.0523Z" fill="black"/>
<path d="M95.909 72.5029C95.909 72.5029 95.3875 71.6363 94.3872 71.9563C94.3872 71.9563 93.8253 72.9937 93.2633 73.1633C92.7014 73.333 92.8879 73.8979 94.1625 73.6906C95.437 73.4834 97.3532 73.3137 97.3532 73.3137L97.4364 72.2581L98.7289 70.7686C98.7289 70.7686 99.501 70.1367 98.3535 68.8931V69.1095C98.3535 69.1095 98.5783 69.9578 98.3119 70.0899C98.0456 70.222 96.8317 72.3708 96.8317 72.3708L95.909 72.5029Z" fill="#1D2366"/>
<path opacity="0.1" d="M88.2138 57.1755C88.2323 57.4613 88.2736 57.7455 88.3375 58.0259C87.1607 57.8694 86.0694 57.9477 85.3546 57.9975V57.1562L88.2138 57.1755Z" fill="black"/>
<path opacity="0.1" d="M98.8705 58.4577C98.8705 58.4577 97.1981 58.5309 95.2065 58.5461C95.1503 58.0716 95.1379 57.6845 95.1379 57.6845C95.1379 57.6845 96.2619 56.2703 98.3287 57.7973C98.4932 57.9199 98.638 58.0625 98.7592 58.221C98.7917 58.3016 98.8289 58.3806 98.8705 58.4577Z" fill="black"/>
<path d="M98.8705 58.288C98.8705 58.288 91.5505 58.6081 89.3172 58.0432C87.084 57.4783 84.8755 57.967 84.5417 57.8349C84.2079 57.7028 84.4799 55.6485 84.7665 55.1395C85.0531 54.6304 86.6648 49.4834 86.6648 49.4834L88.2079 42.2057L89.8354 41.7993L89.9478 41.7709L92.7812 41.0597L94.8593 40.5415C94.8593 40.5415 98.9885 55.1151 98.6334 56.188C98.5047 56.5996 98.4843 57.0328 98.5738 57.4529C98.6294 57.7424 98.7293 58.0234 98.8705 58.288Z" fill="#1D2366"/>
<path d="M82.8334 37.2283C82.8334 37.2283 81.3723 38.6426 82.4782 39.4341C83.5842 40.2255 84.3136 39.5103 84.3136 39.5103L82.8334 37.2283Z" fill="#C7DAF5"/>
<path opacity="0.1" d="M82.8334 37.2283C82.8334 37.2283 81.3723 38.6426 82.4782 39.4341C83.5842 40.2255 84.3136 39.5103 84.3136 39.5103L82.8334 37.2283Z" fill="black"/>
<path d="M94.6484 27.9157C94.6484 27.9157 94.4775 28.062 94.219 28.2804C93.8515 28.5903 93.3076 29.0445 92.8243 29.4255C92.1499 29.9517 91.6048 30.3399 91.8015 30.0076C91.9982 29.6754 91.9611 29.1044 91.8633 28.5669L91.8431 28.4603C91.7615 28.0655 91.6534 27.6757 91.5194 27.2929C91.5194 27.2929 92.5995 26.031 93.1974 25.5331C93.4222 25.3472 93.5762 25.268 93.584 25.398C93.5953 25.5748 93.7425 25.9609 93.9212 26.3795C93.928 26.3917 93.9336 26.4049 93.9392 26.4171C94.0606 26.6985 94.1966 26.9921 94.3168 27.2431C94.5 27.6281 94.6484 27.9157 94.6484 27.9157Z" fill="#FFB0B1"/>
<path opacity="0.1" d="M93.9376 26.4171C93.836 26.9107 93.5897 27.3706 93.2244 27.7488C92.859 28.127 92.388 28.4095 91.8606 28.567C91.7779 28.1357 91.663 27.7101 91.5167 27.2929C91.5167 27.2929 93.5499 24.9175 93.5813 25.3981C93.6005 25.5809 93.7511 25.9853 93.9376 26.4171Z" fill="black"/>
<path opacity="0.1" d="M91.6611 29.2019L91.9241 28.8676C91.9241 28.8676 92.0983 29.8288 92.7401 29.4051C93.3818 28.9814 93.4144 32.5954 93.4144 32.5954L92.7243 41.8999L87.7499 41.6307L87.8904 37.1349L88.4523 34.8722L89.8449 31.5773L90.6788 30.4892L91.6611 29.2019Z" fill="black"/>
<path d="M93.4119 32.6523L92.7892 41.0648L92.724 41.9558L89.9502 41.8065L89.8378 41.8004L87.7462 41.6876L87.8867 37.1908L88.4487 34.9292L89.8412 31.6343L90.6785 30.5451L91.6642 29.2589L91.9272 28.9236C91.9272 28.9236 92.1014 29.8857 92.7431 29.461L92.7555 29.4529C93.3815 29.0892 93.4119 32.6523 93.4119 32.6523Z" fill="#1D2366"/>
<path d="M88.5262 34.1366C88.5262 34.1366 88.2767 34.608 87.7755 34.5329C87.2742 34.4577 87.2753 36.2296 87.2753 36.2296C87.2753 36.2296 86.9382 36.512 86.7134 36.2672C86.4886 36.0223 85.8794 36.8514 85.8794 36.8514L82.084 37.0028C82.084 37.0028 83.7699 37.6997 83.4394 39.812C83.4394 39.812 89.1714 39.4909 89.3624 38.9992C89.5535 38.5074 88.5262 34.1366 88.5262 34.1366Z" fill="white"/>
<path opacity="0.03" d="M88.5262 34.1366C88.5262 34.1366 88.2767 34.608 87.7755 34.5329C87.2742 34.4577 87.2753 36.2296 87.2753 36.2296C87.2753 36.2296 86.9382 36.512 86.7134 36.2672C86.4886 36.0223 85.8794 36.8514 85.8794 36.8514L82.084 37.0028C82.084 37.0028 83.7699 37.6997 83.4394 39.812C83.4394 39.812 89.1714 39.4909 89.3624 38.9992C89.5535 38.5074 88.5262 34.1366 88.5262 34.1366Z" fill="black"/>
<path d="M77.4937 38.1143L78.4951 38.8875L86.7334 40.4521L85.7106 39.5103L77.4937 38.1143Z" fill="white"/>
<path d="M91.6755 29.4986C91.5395 29.6835 91.1484 30.6548 90.8202 31.4991C90.5482 32.2022 90.3201 32.8199 90.3201 32.8199C90.3201 32.8199 89.7885 35.9502 89.5176 36.5151C89.2467 37.08 89.3928 39.2888 89.3928 39.2888L88.3813 44.7376C88.3813 44.7376 87.9228 47.5468 87.2147 49.2242C86.5201 50.8712 85.7334 51.6464 85.712 51.6697C86.0256 51.2867 87.7351 43.7338 87.7351 43.7338L88.297 34.2118C88.297 34.2118 88.3802 33.3076 88.4645 32.5344C88.5488 31.7612 90.2369 30.7056 90.2369 30.7056L91.8688 28.6075C92.0363 28.8138 91.9261 29.1592 91.6755 29.4986Z" fill="white"/>
<path d="M87.4191 41.7343C87.4191 41.7343 85.0207 41.6408 83.853 40.3769C82.6852 39.113 86.5436 39.8689 86.5436 39.8689L87.5439 40.0721L87.4191 41.7343Z" fill="#FFB0B1"/>
<path opacity="0.1" d="M98.6416 56.1951C98.5129 56.6067 98.4925 57.0399 98.582 57.46C95.961 57.6286 93.1569 56.9865 93.1569 56.9865C92.6354 57.4204 91.2586 58.0615 91.2586 58.0615L90.5078 49.652C90.029 48.5202 89.8413 42.5816 89.8413 42.5816C89.8413 42.5816 89.884 42.2707 89.9537 41.8054C89.9537 41.7942 89.9537 41.7821 89.9593 41.7709C90.147 40.4704 90.5213 38.0289 90.6989 37.6987C90.9495 37.2466 89.9279 36.0406 89.9279 36.0406L90.392 32.4562L90.4482 32.0244C91.4294 31.6281 92.1802 30.3652 92.1802 30.3652L92.7556 29.4508C93.3839 29.0871 93.4142 32.6502 93.4142 32.6502L92.7916 41.0627L94.8697 40.5446C94.8697 40.5446 98.9956 55.1201 98.6416 56.1951Z" fill="black"/>
<path d="M101.332 56.7793C98.4751 58.0615 93.2815 56.8738 93.2815 56.8738C92.76 57.3076 91.3832 57.9487 91.3832 57.9487L90.6324 49.5393C90.1536 48.4085 89.9659 42.4699 89.9659 42.4699C89.9659 42.4699 90.5706 38.0392 90.8201 37.587C90.8932 37.4549 90.8583 37.2589 90.7718 37.0475C90.3454 36.0403 90.1886 34.9562 90.3144 33.8837L90.5144 32.3445L90.5706 31.9127C91.5507 31.5164 92.3014 30.2525 92.3014 30.2525L92.8241 29.4255L93.7861 27.9015L94.2413 27.1801L94.3177 27.2431L94.9089 27.7267C94.9089 27.7267 95.1596 27.9137 95.5349 28.2012C96.3531 28.824 97.767 29.9213 98.4953 30.5919C99.1371 31.1842 99.3394 33.4834 99.3945 35.2147C99.4338 36.3536 99.4102 37.2467 99.4102 37.2467C98.7628 38.2078 100.452 45.9386 100.452 45.9386C100.852 47.428 101.332 56.7793 101.332 56.7793Z" fill="white"/>
<path opacity="0.03" d="M95.8484 30.2342C95.8484 30.2342 93.8871 33.6094 94.1175 34.8905C94.3479 36.1717 94.9931 37.6246 94.6795 37.9639C94.5722 38.0924 94.4335 38.1967 94.2742 38.2686C94.1149 38.3406 93.9393 38.3781 93.7613 38.3785C93.4488 38.3978 92.6137 38.9251 92.6137 38.982C92.6137 39.0389 91.8427 39.0389 91.1527 39.303C90.4626 39.5672 89.4421 39.7175 89.4421 39.7175C89.4421 39.7175 87.4606 39.6607 87.2729 39.8303C87.0852 40 86.8975 41.018 87.2943 41.8288C87.691 42.6396 88.1282 43.2431 88.462 43.3528C88.7958 43.4625 90.902 42.8255 92.6115 42.6741C94.321 42.5227 96.1855 41.3015 96.1855 41.3015C96.1855 41.3015 98.2288 40.6411 98.584 39.5286C98.9391 38.4161 98.1456 32.3079 98.1456 32.3079C98.1456 32.3079 97.5342 29.461 95.8484 30.2342Z" fill="black"/>
<path opacity="0.03" d="M95.5966 29.9517C95.5966 29.9517 93.6365 33.3259 93.8658 34.6081C94.0951 35.8903 94.7413 37.3421 94.4278 37.6815C94.3205 37.81 94.1818 37.9143 94.0225 37.9862C93.8632 38.0581 93.6876 38.0957 93.5095 38.096C93.1971 38.1153 92.3631 38.6426 92.3631 38.6995C92.3631 38.7564 91.591 38.7554 90.9021 39.0195C90.2131 39.2837 89.1915 39.4341 89.1915 39.4341C89.1915 39.4341 87.21 39.3782 87.0223 39.5479C86.8346 39.7175 86.6469 40.7356 87.0437 41.5463C87.4404 42.3571 87.8776 42.9606 88.2114 43.0703C88.5452 43.1801 90.6514 42.542 92.362 42.3917C94.0726 42.2413 95.9304 41.016 95.9304 41.016C95.9304 41.016 97.9737 40.3566 98.3289 39.2441C98.684 38.1316 97.8905 32.0234 97.8905 32.0234C97.8905 32.0234 97.2859 29.1786 95.5966 29.9517Z" fill="black"/>
<path d="M95.7846 30.0645C95.7846 30.0645 93.8256 33.4396 94.0504 34.7167C94.2752 35.9939 94.9259 37.4508 94.6123 37.7901C94.5053 37.9188 94.3666 38.0232 94.2072 38.0952C94.0479 38.1671 93.8722 38.2046 93.6941 38.2047C93.3817 38.224 92.5477 38.7513 92.5477 38.8082C92.5477 38.8651 91.7756 38.8651 91.0866 39.1292C90.3977 39.3934 89.376 39.5438 89.376 39.5438C89.376 39.5438 87.3946 39.4869 87.2069 39.6565C87.0192 39.8262 86.8315 40.8442 87.2282 41.655C87.625 42.4658 88.0622 43.0693 88.396 43.179C88.7298 43.2887 90.836 42.6517 92.5466 42.5003C94.2572 42.3489 96.1128 41.1247 96.1128 41.1247C96.1128 41.1247 98.156 40.4643 98.5112 39.3517C98.8664 38.2392 98.0729 32.131 98.0729 32.131C98.0729 32.131 97.4738 29.2913 95.7846 30.0645Z" fill="white"/>
<path opacity="0.1" d="M95.7428 39.114C95.7428 39.114 94.1783 38.8316 94.7211 39.303C95.264 39.7744 95.2629 40.189 95.9305 40.1697C96.5981 40.1504 95.7428 39.114 95.7428 39.114Z" fill="black"/>
<path opacity="0.1" d="M98.3917 49.2762C98.3917 49.2762 97.6825 49.71 99.038 50.7087C100.393 51.7075 98.3917 49.2762 98.3917 49.2762Z" fill="black"/>
<path opacity="0.1" d="M97.0354 52.8392C97.0354 52.8961 96.7859 54.9128 97.7244 55.4218C98.6629 55.9309 97.0354 52.8392 97.0354 52.8392Z" fill="black"/>
<path d="M82.1449 37.0008C81.3896 37.0241 79.7543 37.2334 80.6017 38.6619C81.3514 39.9258 82.6102 39.0815 83.3149 38.4394C83.1429 37.8422 82.7242 37.3273 82.1449 37.0008Z" fill="#FFB0B1"/>
<path d="M83.3271 38.4282C83.3384 38.4191 83.3485 38.4089 83.3586 38.3998C83.3485 38.4089 83.3384 38.4191 83.3271 38.4282Z" fill="#FFB0B1"/>
<path opacity="0.1" d="M95.5349 28.257C94.7325 28.7528 94.0592 29.1714 93.9289 29.2588C93.5681 29.4986 92.8802 30.9128 92.4419 31.6342C92.089 32.2154 90.946 32.3647 90.5144 32.4013L90.5661 31.9736C91.5462 31.5783 92.2969 30.3144 92.2969 30.3144L94.2368 27.242L94.9044 27.7886C94.9044 27.7886 95.1595 27.9705 95.5349 28.257Z" fill="black"/>
<path d="M95.5349 28.2012C94.7325 28.696 94.0592 29.1156 93.9289 29.202C93.5681 29.4428 92.8802 30.856 92.4419 31.5774C92.089 32.1585 90.946 32.3079 90.5144 32.3445L90.5706 31.9127C91.5507 31.5164 92.3014 30.2525 92.3014 30.2525L94.2413 27.1801L94.9089 27.7267C94.9089 27.7267 95.1595 27.9096 95.5349 28.2012Z" fill="#DCE7FF"/>
<path d="M93.9907 25.7943C93.9914 25.991 93.9684 26.1873 93.9221 26.3795C93.8385 26.7388 93.6765 27.0793 93.4456 27.3813C93.0258 27.9332 92.401 28.3309 91.6846 28.502C90.9683 28.6732 90.2078 28.6065 89.5411 28.3141C88.8745 28.0218 88.3459 27.5231 88.0512 26.9085C87.7565 26.2939 87.7153 25.6042 87.935 24.9645C88.1547 24.3248 88.6208 23.7775 89.2487 23.4219C89.8766 23.0663 90.6248 22.926 91.3574 23.0264C92.09 23.1268 92.7585 23.4612 93.2416 23.9691C93.7248 24.4769 93.9905 25.1245 93.9907 25.7943Z" fill="#FFB0B1"/>
<path opacity="0.1" d="M99.3979 35.2146C98.9737 34.9786 98.6284 34.6429 98.3987 34.2433C98.2245 33.9314 98.1087 33.5728 97.8098 33.3503C97.5423 33.1532 97.1804 33.1044 96.8488 33.016C95.7508 32.7224 94.8258 31.8151 94.7943 30.7808C94.7786 30.2941 94.946 29.8075 94.8696 29.3259C94.8265 29.0526 94.7061 28.794 94.5201 28.575C94.4292 28.4695 94.3284 28.3713 94.2189 28.2814C94.0728 28.1565 93.9188 28.0356 93.7862 27.9025C93.7001 27.8208 93.6247 27.7304 93.5614 27.6332C93.5119 27.5535 93.4716 27.4694 93.4411 27.3823C93.2366 26.8052 93.422 26.1184 93.1927 25.5342C93.1927 25.524 93.1849 25.5128 93.1804 25.5027C93.0927 25.2944 92.9163 25.0871 92.6724 25.0709C92.4285 25.0546 92.2161 25.2385 91.9823 25.3218C91.4923 25.4935 90.9629 25.2009 90.5549 24.9022C90.1469 24.6035 89.6861 24.2621 89.1658 24.3292C88.823 24.3729 88.551 24.5852 88.2352 24.6949C88.162 24.7191 88.0868 24.7382 88.0104 24.7518C88.2787 24.1486 88.7709 23.6486 89.4026 23.3375C90.0342 23.0265 90.7659 22.9239 91.4721 23.0473C92.1783 23.1707 92.8149 23.5124 93.2729 24.0138C93.7308 24.5152 93.9814 25.1451 93.9817 25.7953C93.9824 25.992 93.9595 26.1882 93.9132 26.3805C93.9199 26.3927 93.9255 26.4059 93.9312 26.4181C94.0525 26.6995 94.1885 26.9931 94.3088 27.2441L94.9 27.7277C94.9 27.7277 95.1506 27.9146 95.526 28.2022C96.3442 28.825 97.7581 29.9223 98.4864 30.5928C99.1371 31.1841 99.3394 33.4834 99.3979 35.2146Z" fill="black"/>
<path d="M88.2061 22.9708C88.3556 22.6955 88.4309 22.3876 88.6085 22.1275C88.8704 21.7465 89.3289 21.5078 89.7976 21.3615C91.0249 20.9795 93.6189 20.4237 94.3933 21.3615C94.5461 21.5474 94.672 21.7608 94.8833 21.8918C95.0541 21.9759 95.2318 22.0479 95.4149 22.1072C95.9094 22.3175 96.2252 22.7737 96.3938 23.2431C96.5624 23.7125 96.6119 24.2103 96.731 24.6919C96.8884 25.3076 97.166 25.8918 97.4413 26.473C97.7661 27.1588 98.1157 27.869 98.7383 28.3546C99.5936 29.016 99.7858 29.9518 100.576 30.6762C101.517 31.5378 101.486 32.9591 101.002 34.0869C100.922 34.2295 100.883 34.3883 100.889 34.5482C100.935 34.7115 101.031 34.8595 101.167 34.9749L101.681 35.4992C101.067 35.6188 100.427 35.5546 99.8577 35.3163C99.2881 35.078 98.8198 34.6786 98.5237 34.1783C98.3483 33.8664 98.2326 33.5078 97.9336 33.2863C97.6661 33.0882 97.3053 33.0404 96.9727 32.951C95.8746 32.6574 94.9496 31.7501 94.9181 30.7158C94.9024 30.2302 95.0699 29.7425 94.9946 29.2609C94.9495 28.9911 94.8296 28.7359 94.6461 28.5192C94.3573 28.1799 93.9246 27.9492 93.6908 27.5774C93.2952 26.9464 93.5953 26.1255 93.3098 25.4438C93.2221 25.2406 93.0468 25.0282 92.8018 25.012C92.5568 24.9957 92.3455 25.1806 92.1117 25.2629C91.6217 25.4346 91.0935 25.142 90.6855 24.8433C90.2775 24.5446 89.8156 24.2043 89.2963 24.2713C88.9524 24.315 88.6815 24.5263 88.3646 24.6361C88.1308 24.7173 87.6565 24.7905 87.4509 24.6117C87.0204 24.2378 88.0218 23.3051 88.2061 22.9708Z" fill="#591D4B"/>
<path opacity="0.1" d="M98.8157 33.8664C98.6415 33.5545 98.5258 33.1958 98.2268 32.9733C97.9593 32.7752 97.5974 32.7274 97.2659 32.639C96.1678 32.3454 95.2428 31.4381 95.2113 30.4038C95.1945 29.9172 95.3631 29.4305 95.2866 28.9489C95.2435 28.6756 95.1231 28.417 94.9371 28.1981C94.6494 27.8588 94.2156 27.6271 93.9829 27.2552C93.5862 26.6243 93.8874 25.8034 93.6019 25.1216C93.5142 24.9184 93.3389 24.7061 93.0939 24.6898C92.8489 24.6736 92.6376 24.8575 92.4038 24.9398C91.9138 25.1125 91.3844 24.8199 90.9775 24.5212C90.5707 24.2225 90.1076 23.8821 89.5873 23.9482C89.2501 23.9918 88.9736 24.2032 88.6567 24.3139C88.4229 24.3952 87.9486 24.4683 87.7429 24.2895C87.3125 23.9136 88.3139 22.9809 88.4948 22.6477C88.6443 22.3723 88.7196 22.0645 88.8972 21.8044L88.9275 21.7617C88.7953 21.8629 88.6816 21.9822 88.5904 22.1153C88.4105 22.3754 88.3364 22.6832 88.188 22.9586C88.007 23.2928 87.0056 24.2255 87.4361 24.6004C87.6407 24.7792 88.1105 24.702 88.3498 24.6248C88.6657 24.5151 88.9365 24.3038 89.2804 24.2591C89.7997 24.193 90.2616 24.5334 90.6696 24.8321C91.0776 25.1308 91.6069 25.4234 92.0958 25.2517C92.3307 25.1694 92.5353 24.9835 92.7859 25.0007C93.0366 25.018 93.2074 25.2243 93.2951 25.4325C93.5805 26.1102 93.2793 26.9311 93.6749 27.5661C93.9087 27.937 94.3425 28.1686 94.6303 28.508C94.8163 28.7269 94.9367 28.9855 94.9798 29.2588C95.0562 29.7404 94.8876 30.2271 94.9045 30.7137C94.9393 31.749 95.861 32.6563 96.959 32.9489C97.2906 33.0373 97.6525 33.0851 97.92 33.2842C98.2189 33.5057 98.3336 33.8643 98.5089 34.1763C98.8051 34.6765 99.2733 35.076 99.8429 35.3143C100.413 35.5525 101.052 35.6167 101.666 35.4971L101.424 35.2492C100.363 35.2654 99.2968 34.7229 98.8157 33.8664Z" fill="black"/>
<path opacity="0.1" d="M91.6133 29.5555C91.4762 29.7404 91.0851 30.7117 90.758 31.555C90.4523 31.4483 90.1736 30.7615 90.1736 30.7615L91.8021 28.6635C91.973 28.8707 91.8628 29.2162 91.6133 29.5555Z" fill="black"/>
<path d="M91.6755 29.4986C91.5396 29.6835 91.1484 30.6548 90.8202 31.4991C90.5145 31.3924 90.2369 30.7056 90.2369 30.7056L91.8689 28.6075C92.0363 28.8138 91.9262 29.1592 91.6755 29.4986Z" fill="#DCE7FF"/>
<path d="M82.1884 39.1466L81.2836 36.571C81.2728 36.5407 81.2687 36.5088 81.2715 36.4771C81.2743 36.4453 81.2841 36.4144 81.3002 36.3861C81.3162 36.3578 81.3383 36.3326 81.3652 36.312C81.3921 36.2915 81.4232 36.2759 81.4567 36.2662C81.4902 36.2561 81.5256 36.2522 81.5608 36.2546C81.596 36.257 81.6303 36.2658 81.6617 36.2804C81.6931 36.2949 81.7209 36.315 81.7436 36.3395C81.7663 36.3639 81.7834 36.3922 81.7939 36.4227L82.6986 39.0003L82.6087 39.5398L82.1884 39.1466Z" fill="#BE8B87"/>
<path opacity="0.1" d="M81.3691 36.3424C81.4026 36.3326 81.438 36.3289 81.4732 36.3316C81.5083 36.3342 81.5426 36.3431 81.5739 36.3577C81.6052 36.3724 81.6331 36.3924 81.6558 36.4168C81.6785 36.4412 81.6956 36.4695 81.7062 36.4999L82.611 39.0754L82.5424 39.4818L82.6087 39.5438L82.6986 39.0043L81.7939 36.4288C81.7834 36.3983 81.7664 36.37 81.7437 36.3456C81.721 36.3211 81.6931 36.301 81.6617 36.2865C81.6303 36.2719 81.596 36.2631 81.5608 36.2607C81.5256 36.2583 81.4902 36.2622 81.4567 36.2723C81.4004 36.2881 81.3517 36.3207 81.3185 36.3647C81.3344 36.3556 81.3513 36.3481 81.3691 36.3424Z" fill="white"/>
<path d="M82.1884 39.1465L82.6964 39.0002L82.6222 39.4432L82.6065 39.5397L82.4581 39.3995L82.1884 39.1465Z" fill="#EFC8C4"/>
<path d="M82.458 39.3995C82.4673 39.3898 82.4783 39.3816 82.4906 39.3751C82.4979 39.3711 82.5062 39.369 82.5148 39.369C82.5233 39.369 82.5317 39.3711 82.5389 39.3751C82.5463 39.3828 82.5523 39.3913 82.5569 39.4005C82.5637 39.4112 82.5731 39.4204 82.5844 39.4272C82.5957 39.4341 82.6086 39.4385 82.6221 39.4402L82.6064 39.5418L82.458 39.3995Z" fill="#727A9C"/>
<path d="M81.2792 37.4834C81.2792 37.4834 83.0943 37.4742 82.6661 38.1712C82.2379 38.8682 81.5714 38.9535 81.5714 38.9535L81.2792 37.4834Z" fill="#FFB0B1"/>
</g>
<defs>
<linearGradient id="paint0_linear_105_66" x1="89.5884" y1="73.7475" x2="89.5884" y2="20.6756" gradientUnits="userSpaceOnUse">
<stop stop-color="#808080" stop-opacity="0.25"/>
<stop offset="0.54" stop-color="#808080" stop-opacity="0.12"/>
<stop offset="1" stop-color="#808080" stop-opacity="0.1"/>
</linearGradient>
<clipPath id="clip0_105_66">
<rect width="111" height="80" fill="white"/>
</clipPath>
</defs>
</svg>
